<?xml version="1.0" encoding="UTF-8" standalone="no"?>
<!-- Created with Inkscape (http://www.inkscape.org/) -->
<svg
   xmlns:dc="http://purl.org/dc/elements/1.1/"
   xmlns:cc="http://creativecommons.org/ns#"
   xmlns:rdf="http://www.w3.org/1999/02/22-rdf-syntax-ns#"
   xmlns:svg="http://www.w3.org/2000/svg"
   xmlns="http://www.w3.org/2000/svg"
   xmlns:sodipodi="http://sodipodi.sourceforge.net/DTD/sodipodi-0.dtd"
   xmlns:inkscape="http://www.inkscape.org/namespaces/inkscape"
   width="256"
   height="192"
   id="svg2"
   sodipodi:version="0.32"
   inkscape:version="0.46"
   version="1.0"
   inkscape:export-filename="/Users/dylan/Documents/SSBDS/SSBDS/graphicswip/MMIcons.png"
   inkscape:export-xdpi="89.53125"
   inkscape:export-ydpi="89.53125"
   sodipodi:docname="MM.svg"
   inkscape:output_extension="org.inkscape.output.svg.inkscape">
  <defs
     id="defs4">
    <inkscape:perspective
       sodipodi:type="inkscape:persp3d"
       inkscape:vp_x="0 : 526.18109 : 1"
       inkscape:vp_y="0 : 1000 : 0"
       inkscape:vp_z="744.09448 : 526.18109 : 1"
       inkscape:persp3d-origin="372.04724 : 350.78739 : 1"
       id="perspective10" />
    <inkscape:perspective
       id="perspective2447"
       inkscape:persp3d-origin="372.04724 : 350.78739 : 1"
       inkscape:vp_z="744.09448 : 526.18109 : 1"
       inkscape:vp_y="0 : 1000 : 0"
       inkscape:vp_x="0 : 526.18109 : 1"
       sodipodi:type="inkscape:persp3d" />
  </defs>
  <sodipodi:namedview
     id="base"
     pagecolor="#ffffff"
     bordercolor="#666666"
     borderopacity="1.0"
     gridtolerance="10000"
     guidetolerance="10"
     objecttolerance="10"
     inkscape:pageopacity="0.0"
     inkscape:pageshadow="2"
     inkscape:zoom="4"
     inkscape:cx="118.83054"
     inkscape:cy="81.20458"
     inkscape:document-units="px"
     inkscape:current-layer="svg2"
     showgrid="true"
     showguides="true"
     inkscape:guide-bbox="true"
     inkscape:window-width="1680"
     inkscape:window-height="933"
     inkscape:window-x="1"
     inkscape:window-y="22"
     inkscape:snap-global="true">
    <inkscape:grid
       type="xygrid"
       id="grid2453"
       visible="true"
       enabled="true"
       spacingx="4px"
       spacingy="4px" />
  </sodipodi:namedview>
  <metadata
     id="metadata7">
    <rdf:RDF>
      <cc:Work
         rdf:about="">
        <dc:format>image/svg+xml</dc:format>
        <dc:type
           rdf:resource="http://purl.org/dc/dcmitype/StillImage" />
      </cc:Work>
    </rdf:RDF>
  </metadata>
  <g
     inkscape:label="Layer 1"
     inkscape:groupmode="layer"
     id="layer1" />
  <g
     id="g3291"
     transform="translate(67.70937,-67.60236)">
    <path
       sodipodi:nodetypes="cccc"
       id="path3265"
       d="M 124.29063,119.64828 C 137.61459,119.64828 137.61459,128.16906 137.61459,145.21061 C 128.73196,145.21061 119.84929,145.21061 110.96666,145.21061 C 110.96666,128.16906 110.96666,119.64828 124.29063,119.64828 z"
       style="fill:#e2ee00;fill-opacity:1;stroke:#000000;stroke-width:1.12242472;stroke-linejoin:miter;stroke-miterlimit:4;stroke-dasharray:none;stroke-opacity:1" />
    <path
       sodipodi:nodetypes="cccc"
       id="rect3256"
       d="M 108.00633,133.46479 C 121.33031,133.46479 121.33031,141.98557 121.33031,159.02712 C 112.44767,159.02712 103.565,159.02712 94.682364,159.02712 C 94.682364,141.98557 94.682364,133.46479 108.00633,133.46479 z"
       style="fill:#0002ee;fill-opacity:1;stroke:#000000;stroke-width:1.12242472;stroke-linejoin:miter;stroke-miterlimit:4;stroke-dasharray:none;stroke-opacity:1" />
    <path
       inkscape:transform-center-y="-5.8032511"
       transform="matrix(1.2213221,0,0,1.2213221,-28.781735,-17.139787)"
       d="M 120,112 A 8,8 0 1 1 104,112 A 8,8 0 1 1 120,112 z"
       sodipodi:ry="8"
       sodipodi:rx="8"
       sodipodi:cy="112"
       sodipodi:cx="112"
       id="path3259"
       style="fill:#0002ee;fill-opacity:1;stroke:#000000;stroke-width:0.91902429;stroke-linejoin:miter;stroke-miterlimit:4;stroke-dasharray:none;stroke-opacity:1"
       sodipodi:type="arc" />
    <path
       inkscape:transform-center-y="-5.8032509"
       transform="matrix(1.2213221,0,0,1.2213221,-12.497442,-30.956288)"
       d="M 120,112 A 8,8 0 1 1 104,112 A 8,8 0 1 1 120,112 z"
       sodipodi:ry="8"
       sodipodi:rx="8"
       sodipodi:cy="112"
       sodipodi:cx="112"
       id="path3267"
       style="fill:#e2ee00;fill-opacity:1;stroke:#000000;stroke-width:0.91902429;stroke-linejoin:miter;stroke-miterlimit:4;stroke-dasharray:none;stroke-opacity:1"
       sodipodi:type="arc" />
    <path
       sodipodi:nodetypes="cccc"
       id="path3261"
       d="M 140.57492,133.46479 C 153.89889,133.46479 153.89889,141.98557 153.89889,159.02712 C 145.01626,159.02712 136.13359,159.02712 127.25094,159.02712 C 127.25094,141.98557 127.25094,133.46479 140.57492,133.46479 z"
       style="fill:#ee0000;fill-opacity:1;stroke:#000000;stroke-width:1.12242472;stroke-linejoin:miter;stroke-miterlimit:4;stroke-dasharray:none;stroke-opacity:1" />
    <path
       inkscape:transform-center-y="-5.8032511"
       transform="matrix(1.2213221,0,0,1.2213221,3.7868534,-17.139787)"
       d="M 120,112 A 8,8 0 1 1 104,112 A 8,8 0 1 1 120,112 z"
       sodipodi:ry="8"
       sodipodi:rx="8"
       sodipodi:cy="112"
       sodipodi:cx="112"
       id="path3263"
       style="fill:#ee0000;fill-opacity:1;stroke:#000000;stroke-width:0.91902429;stroke-linejoin:miter;stroke-miterlimit:4;stroke-dasharray:none;stroke-opacity:1"
       sodipodi:type="arc" />
  </g>
  <path
     style="fill:#0002ee;fill-opacity:1;stroke:#000000;stroke-width:1.12242472;stroke-linejoin:miter;stroke-miterlimit:4;stroke-dasharray:none;stroke-opacity:1"
     d="M 64,64 C 77.32398,64 77.32398,72.52078 77.32398,89.56233 C 68.44134,89.56233 59.55867,89.56233 50.67603,89.56233 C 50.67603,72.52078 50.67603,64 64,64 z"
     id="path3287"
     sodipodi:nodetypes="cccc" />
  <path
     sodipodi:type="arc"
     style="fill:#0002ee;fill-opacity:1;stroke:#000000;stroke-width:0.91902429;stroke-linejoin:miter;stroke-miterlimit:4;stroke-dasharray:none;stroke-opacity:1"
     id="path3289"
     sodipodi:cx="112"
     sodipodi:cy="112"
     sodipodi:rx="8"
     sodipodi:ry="8"
     d="M 120,112 A 8,8 0 1 1 104,112 A 8,8 0 1 1 120,112 z"
     transform="matrix(1.2213221,0,0,1.2213221,-72.788065,-86.60458)"
     inkscape:transform-center-y="-5.8032511" />
  <path
     style="fill:none;fill-rule:evenodd;stroke:#000000;stroke-width:1;stroke-linecap:butt;stroke-linejoin:miter;stroke-opacity:1;fill-opacity:1;stroke-miterlimit:4;stroke-dasharray:none"
     d="M 112,112 L 112,32 C 112,16 112,16 96,16 L 32,16 C 16,16 16,16 16,32 L 16,128"
     id="path2400"
     sodipodi:nodetypes="cccccc" />
  <path
     style="fill:none;fill-rule:evenodd;stroke:#000000;stroke-width:1;stroke-linecap:butt;stroke-linejoin:miter;stroke-opacity:1;fill-opacity:1;stroke-miterlimit:4;stroke-dasharray:none"
     d="M 16,120 C 32,104 96,128 112,112 L 112,128 C 112,144 112,144 96,144 C 80,144 48,144 32,144 C 16,144 16,144 16,128 L 16,120 z"
     id="path2406"
     sodipodi:nodetypes="ccccccc" />
  <path
     style="fill:none;fill-rule:evenodd;stroke:#000000;stroke-width:1;stroke-linecap:butt;stroke-linejoin:miter;stroke-opacity:1;fill-opacity:1;stroke-miterlimit:4;stroke-dasharray:none"
     d="M 240,112.00001 L 240,32.000004 C 240,16.000004 240,16.000004 224,16.000004 L 160,16.000004 C 144,16.000004 144,16.000004 144,32.000004 L 144,128"
     id="path2408"
     sodipodi:nodetypes="cccccc" />
  <rect
     style="fill:none;fill-opacity:1;stroke:#000000;stroke-width:1.23095548;stroke-linecap:round;stroke-linejoin:round;stroke-miterlimit:4;stroke-dasharray:none;stroke-opacity:1"
     id="rect2422"
     width="223.76904"
     height="24.269045"
     x="16.115479"
     y="160.11548"
     ry="12.134522" />
  <path
     style="fill:none;fill-rule:evenodd;stroke:#000000;stroke-width:1px;stroke-linecap:butt;stroke-linejoin:miter;stroke-opacity:1"
     d="M 32,160 L 32,184"
     id="path3204"
     sodipodi:nodetypes="cc" />
  <path
     style="fill:none;fill-rule:evenodd;stroke:#000000;stroke-width:1px;stroke-linecap:butt;stroke-linejoin:miter;stroke-opacity:1"
     d="M 112,160 L 112,184"
     id="path3208"
     sodipodi:nodetypes="cc" />
  <path
     style="fill:none;fill-rule:evenodd;stroke:#000000;stroke-width:1px;stroke-linecap:butt;stroke-linejoin:miter;stroke-opacity:1"
     d="M 144,160 L 144,184"
     id="path3212"
     sodipodi:nodetypes="cc" />
  <path
     style="fill:none;fill-rule:evenodd;stroke:#000000;stroke-width:1px;stroke-linecap:butt;stroke-linejoin:miter;stroke-opacity:1"
     d="M 224,160 L 224,184"
     id="path3216"
     sodipodi:nodetypes="cc" />
  <text
     xml:space="preserve"
     style="font-size:36.407547px;font-style:normal;font-variant:normal;font-weight:bold;font-stretch:normal;text-align:center;text-anchor:middle;fill:#000000;fill-opacity:1;stroke:none;stroke-width:1px;stroke-linecap:butt;stroke-linejoin:miter;stroke-opacity:1;font-family:News Gothic MT;-inkscape-font-specification:News Gothic MT Bold"
     x="63.84375"
     y="140"
     id="text3218"><tspan
       sodipodi:role="line"
       id="tspan3220"
       x="63.84375"
       y="140"><tspan
         style="font-size:27px;text-align:center;text-anchor:middle"
         id="tspan3224">S</tspan><tspan
         style="font-size:24px;text-align:center;text-anchor:middle"
         id="tspan3222">INGLE</tspan></tspan></text>
  <path
     style="fill:none;fill-opacity:1;fill-rule:evenodd;stroke:#000000;stroke-width:1;stroke-linecap:butt;stroke-linejoin:miter;stroke-miterlimit:4;stroke-dasharray:none;stroke-opacity:1"
     d="M 144,120 C 160,104 224,128 240,112 L 240,128 C 240,144 240,144 224,144 C 208,144 176,144 160,144 C 144,144 144,144 144,128 L 144,120 z"
     id="path3226"
     sodipodi:nodetypes="ccccccc" />
  <text
     xml:space="preserve"
     style="font-size:22px;font-style:normal;font-variant:normal;font-weight:bold;font-stretch:normal;text-align:center;text-anchor:middle;fill:#000000;fill-opacity:1;stroke:none;stroke-width:1px;stroke-linecap:butt;stroke-linejoin:miter;stroke-opacity:1;font-family:News Gothic MT;-inkscape-font-specification:News Gothic MT Bold"
     x="190.78711"
     y="140"
     id="text3228"><tspan
       sodipodi:role="line"
       id="tspan3230"
       x="190.78711"
       y="140"
       style="font-size:27px;text-align:center;text-anchor:middle">M<tspan
   style="font-size:22px;text-align:center;text-anchor:middle"
   id="tspan3238">ULTI</tspan></tspan></text>
  <text
     xml:space="preserve"
     style="font-size:18px;font-style:normal;font-variant:normal;font-weight:normal;font-stretch:normal;text-align:end;text-anchor:end;fill:#000000;fill-opacity:1;stroke:none;stroke-width:1px;stroke-linecap:butt;stroke-linejoin:miter;stroke-opacity:1;font-family:News Gothic MT;-inkscape-font-specification:News Gothic MT"
     x="97.261719"
     y="178"
     id="text3240"><tspan
       sodipodi:role="line"
       id="tspan3242"
       x="97.261719"
       y="178">Extras</tspan></text>
  <text
     xml:space="preserve"
     style="font-size:18px;font-style:normal;font-variant:normal;font-weight:normal;font-stretch:normal;text-align:end;text-anchor:end;fill:#000000;fill-opacity:1;stroke:none;stroke-width:1px;stroke-linecap:butt;stroke-linejoin:miter;stroke-opacity:1;font-family:News Gothic MT;-inkscape-font-specification:News Gothic MT"
     x="218.98828"
     y="177"
     id="text3244"><tspan
       sodipodi:role="line"
       id="tspan3246"
       x="218.98828"
       y="177">Options</tspan></text>
  <rect
     style="fill:none;fill-opacity:1;stroke:#000000;stroke-width:1;stroke-linecap:round;stroke-linejoin:round;stroke-miterlimit:4;stroke-dasharray:none;stroke-opacity:1"
     id="rect3248"
     width="256"
     height="192"
     x="0"
     y="0"
     ry="0" />
</svg>
