<?xml version="1.0" encoding="UTF-8" standalone="no"?>
<!-- Created with Inkscape (http://www.inkscape.org/) -->
<svg
   xmlns:dc="http://purl.org/dc/elements/1.1/"
   xmlns:cc="http://creativecommons.org/ns#"
   xmlns:rdf="http://www.w3.org/1999/02/22-rdf-syntax-ns#"
   xmlns:svg="http://www.w3.org/2000/svg"
   xmlns="http://www.w3.org/2000/svg"
   xmlns:sodipodi="http://sodipodi.sourceforge.net/DTD/sodipodi-0.dtd"
   xmlns:inkscape="http://www.inkscape.org/namespaces/inkscape"
   width="256"
   height="192"
   id="svg2"
   sodipodi:version="0.32"
   inkscape:version="0.46"
   version="1.0"
   inkscape:export-filename="/Users/dylan/Documents/SSBDS/SSBDS/graphicswip/MMIcons.png"
   inkscape:export-xdpi="89.53125"
   inkscape:export-ydpi="89.53125"
   sodipodi:docname="MMIcons.svg"
   inkscape:output_extension="org.inkscape.output.svg.inkscape">
  <defs
     id="defs4">
    <inkscape:perspective
       sodipodi:type="inkscape:persp3d"
       inkscape:vp_x="0 : 526.18109 : 1"
       inkscape:vp_y="0 : 1000 : 0"
       inkscape:vp_z="744.09448 : 526.18109 : 1"
       inkscape:persp3d-origin="372.04724 : 350.78739 : 1"
       id="perspective10" />
    <inkscape:perspective
       id="perspective2447"
       inkscape:persp3d-origin="372.04724 : 350.78739 : 1"
       inkscape:vp_z="744.09448 : 526.18109 : 1"
       inkscape:vp_y="0 : 1000 : 0"
       inkscape:vp_x="0 : 526.18109 : 1"
       sodipodi:type="inkscape:persp3d" />
  </defs>
  <sodipodi:namedview
     id="base"
     pagecolor="#ffffff"
     bordercolor="#666666"
     borderopacity="1.0"
     gridtolerance="10000"
     guidetolerance="10"
     objecttolerance="10"
     inkscape:pageopacity="0.0"
     inkscape:pageshadow="2"
     inkscape:zoom="2"
     inkscape:cx="228.61173"
     inkscape:cy="126.52677"
     inkscape:document-units="px"
     inkscape:current-layer="svg2"
     showgrid="true"
     showguides="true"
     inkscape:guide-bbox="true"
     inkscape:window-width="1680"
     inkscape:window-height="933"
     inkscape:window-x="0"
     inkscape:window-y="22">
    <inkscape:grid
       type="xygrid"
       id="grid2453"
       visible="true"
       enabled="true"
       spacingx="12px"
       spacingy="12px" />
  </sodipodi:namedview>
  <metadata
     id="metadata7">
    <rdf:RDF>
      <cc:Work
         rdf:about="">
        <dc:format>image/svg+xml</dc:format>
        <dc:type
           rdf:resource="http://purl.org/dc/dcmitype/StillImage" />
      </cc:Work>
    </rdf:RDF>
  </metadata>
  <g
     inkscape:label="Layer 1"
     inkscape:groupmode="layer"
     id="layer1" />
  <g
     id="g3291"
     transform="translate(0,-7)">
    <path
       sodipodi:nodetypes="cccc"
       id="path3265"
       d="M 124.29063,119.64828 C 137.61459,119.64828 137.61459,128.16906 137.61459,145.21061 C 128.73196,145.21061 119.84929,145.21061 110.96666,145.21061 C 110.96666,128.16906 110.96666,119.64828 124.29063,119.64828 z"
       style="fill:#e2ee00;fill-opacity:1;stroke:#000000;stroke-width:1.12242472;stroke-linejoin:miter;stroke-miterlimit:4;stroke-dasharray:none;stroke-opacity:1" />
    <path
       sodipodi:nodetypes="cccc"
       id="rect3256"
       d="M 108.00633,133.46479 C 121.33031,133.46479 121.33031,141.98557 121.33031,159.02712 C 112.44767,159.02712 103.565,159.02712 94.682364,159.02712 C 94.682364,141.98557 94.682364,133.46479 108.00633,133.46479 z"
       style="fill:#0002ee;fill-opacity:1;stroke:#000000;stroke-width:1.12242472;stroke-linejoin:miter;stroke-miterlimit:4;stroke-dasharray:none;stroke-opacity:1" />
    <path
       inkscape:transform-center-y="-5.8032511"
       transform="matrix(1.2213221,0,0,1.2213221,-28.781735,-17.139787)"
       d="M 120,112 A 8,8 0 1 1 104,112 A 8,8 0 1 1 120,112 z"
       sodipodi:ry="8"
       sodipodi:rx="8"
       sodipodi:cy="112"
       sodipodi:cx="112"
       id="path3259"
       style="fill:#0002ee;fill-opacity:1;stroke:#000000;stroke-width:0.91902429;stroke-linejoin:miter;stroke-miterlimit:4;stroke-dasharray:none;stroke-opacity:1"
       sodipodi:type="arc" />
    <path
       inkscape:transform-center-y="-5.8032509"
       transform="matrix(1.2213221,0,0,1.2213221,-12.497442,-30.956288)"
       d="M 120,112 A 8,8 0 1 1 104,112 A 8,8 0 1 1 120,112 z"
       sodipodi:ry="8"
       sodipodi:rx="8"
       sodipodi:cy="112"
       sodipodi:cx="112"
       id="path3267"
       style="fill:#e2ee00;fill-opacity:1;stroke:#000000;stroke-width:0.91902429;stroke-linejoin:miter;stroke-miterlimit:4;stroke-dasharray:none;stroke-opacity:1"
       sodipodi:type="arc" />
    <path
       sodipodi:nodetypes="cccc"
       id="path3261"
       d="M 140.57492,133.46479 C 153.89889,133.46479 153.89889,141.98557 153.89889,159.02712 C 145.01626,159.02712 136.13359,159.02712 127.25094,159.02712 C 127.25094,141.98557 127.25094,133.46479 140.57492,133.46479 z"
       style="fill:#ee0000;fill-opacity:1;stroke:#000000;stroke-width:1.12242472;stroke-linejoin:miter;stroke-miterlimit:4;stroke-dasharray:none;stroke-opacity:1" />
    <path
       inkscape:transform-center-y="-5.8032511"
       transform="matrix(1.2213221,0,0,1.2213221,3.7868534,-17.139787)"
       d="M 120,112 A 8,8 0 1 1 104,112 A 8,8 0 1 1 120,112 z"
       sodipodi:ry="8"
       sodipodi:rx="8"
       sodipodi:cy="112"
       sodipodi:cx="112"
       id="path3263"
       style="fill:#ee0000;fill-opacity:1;stroke:#000000;stroke-width:0.91902429;stroke-linejoin:miter;stroke-miterlimit:4;stroke-dasharray:none;stroke-opacity:1"
       sodipodi:type="arc" />
  </g>
  <path
     style="fill:#0002ee;fill-opacity:1;stroke:#000000;stroke-width:1.12242472;stroke-linejoin:miter;stroke-miterlimit:4;stroke-dasharray:none;stroke-opacity:1"
     d="M 62,60 C 75.32398,60 75.32398,68.52078 75.32398,85.56233 C 66.44134,85.56233 57.55867,85.56233 48.676034,85.56233 C 48.676034,68.52078 48.676034,60 62,60 z"
     id="path3287"
     sodipodi:nodetypes="cccc" />
  <path
     sodipodi:type="arc"
     style="fill:#0002ee;fill-opacity:1;stroke:#000000;stroke-width:0.91902429;stroke-linejoin:miter;stroke-miterlimit:4;stroke-dasharray:none;stroke-opacity:1"
     id="path3289"
     sodipodi:cx="112"
     sodipodi:cy="112"
     sodipodi:rx="8"
     sodipodi:ry="8"
     d="M 120,112 A 8,8 0 1 1 104,112 A 8,8 0 1 1 120,112 z"
     transform="matrix(1.2213221,0,0,1.2213221,-74.788065,-90.604581)"
     inkscape:transform-center-y="-5.8032511" />
  <path
     style="fill:none;fill-rule:evenodd;stroke:#000000;stroke-width:7.5;stroke-linecap:round;stroke-linejoin:round;stroke-miterlimit:4;stroke-dasharray:none;stroke-opacity:1"
     d="M 163,44 C 176.33334,57.333334 189.66666,70.666666 203,84"
     id="path3341" />
  <path
     style="fill:#f0e700;fill-opacity:1;fill-rule:evenodd;stroke:#000000;stroke-width:7.5;stroke-linecap:round;stroke-linejoin:round;stroke-miterlimit:4;stroke-dasharray:none;stroke-opacity:1"
     d="M 163.75,83.75 L 203.75,43.75"
     id="path3345" />
</svg>
